PathFileType	4	(X/Y/Z)	pose_F01_0-88.trc
DataRate	CameraRate	NumFrames	NumMarkers	Units	OrigDataRate	OrigDataStartFrame	OrigNumFrames
30	30	11	21	m	30	25	88
Frame#	Time	CHip			RHip			RKnee			RAnkle			RBigToe			RSmallToe			RHeel			LHip			LKnee			LAnkle			LBigToe			LSmallToe			LHeel			Neck			Nose			RShoulder			RElbow			RWrist			LShoulder			LElbow			LWrist			
		X1	Y1	Z1	X2	Y2	Z2	X3	Y3	Z3	X4	Y4	Z4	X5	Y5	Z5	X6	Y6	Z6	X7	Y7	Z7	X8	Y8	Z8	X9	Y9	Z9	X10	Y10	Z10	X11	Y11	Z11	X12	Y12	Z12	X13	Y13	Z13	X14	Y14	Z14	X15	Y15	Z15	X16	Y16	Z16	X17	Y17	Z17	X18	Y18	Z18	X19	Y19	Z19	X20	Y20	Z20	X21	Y21	Z21	
25	0.8333333333333334	-0.25089317431702923	1.8758157327495235	-0.529725820467689	-0.2691638254585468	1.8727242189088875	-0.4657524225165263	-0.2741049366221399	1.7252533918672561	-0.4361884044839372													-0.23419160770588704	1.880117602563623	-0.6032539233747332	-0.23054400830368288	1.726101080771908	-0.5708546366720585	-0.22026229002164657	1.5838528341507598	-0.5630926375039629	-0.2240479868640802	1.5493628857473993	-0.6426627802455953	-0.21211305573421232	1.559892224101535	-0.6510908536394059	-0.22152627044493214	1.5678063424874953	-0.5300052037002942	-0.24497743912403874	2.054405753152093	-0.5334002136890157	-0.25637922042962624	2.1301893501296223	-0.5885675614637974	-0.2664063474980467	2.0532950586180188	-0.4420949510593627	-0.27499354928794517	1.9585890194454554	-0.4042685085444759	-0.2868311072899674	1.879116714248148	-0.39764330213429794	-0.2206721856442251	2.0565814379400735	-0.6247209507521032	-1.4117584965585113	1.8720117411797816	0.620501198910058	-0.20052335901034307	1.9006459512841185	-0.6763879565490255
26	0.8666666666666667	-0.25291854899391464	1.8759883107677795	-0.5277111453090815	-0.27026772854326697	1.8723114920894108	-0.46886490742141534	-0.27587700049941194	1.72292393178485	-0.4415701242061147													-0.23514075419905675	1.8800217237905206	-0.6064074525259716	-0.22983907524924063	1.723298202529349	-0.5755919529873671	-0.22138655961767262	1.5822212508197289	-0.565895891733712	-0.22685713871449914	1.5503545689953284	-0.6442460266639021	-0.2138830000139159	1.5606978466303731	-0.6496120106671788	-0.22078431346176353	1.5668972753324713	-0.5350280019746492	-0.24503618549324307	2.054353561342828	-0.5333233056040104	-0.25630687762449506	2.1313358343388664	-0.5883920871653464	-0.26834898814375713	2.0532146757758674	-0.4399032551673991	-0.2765740916498983	1.9584182292145096	-0.4017121016519425	-0.2866072908922359	1.874515954776518	-0.40548952142934025	-0.2215596793068016	2.0567383684107927	-0.6277365921727459	-1.4117584965585113	1.8720117411797816	0.620501198910058	-0.20052335901034307	1.9006459512841185	-0.6763879565490255
27	0.9	-0.253073989947897	1.8748950300527656	-0.5274542321952592	-0.2692696750388887	1.8728046580718452	-0.4656682160879109	-0.27708682720835287	1.7203545433327525	-0.44438107688540524													-0.23516282810687517	1.8800172479402577	-0.6063227954340177	-0.23058287658747126	1.7250742467117988	-0.5792457206645575	-0.22340050775619788	1.5815013136993195	-0.5637290995234238	-0.22639602147921697	1.5479550139724962	-0.6445752658595184	-0.21667737002721402	1.561633943054	-0.6511441958886409	-0.22464253999765602	1.567881626218704	-0.5312583240524937	-0.24699581224263067	2.054318105845536	-0.5312019739207477	-0.25635587738212284	2.1324344749998554	-0.5888631197269835	-0.27027062907347543	2.053243596010177	-0.43783426528077507	-0.27694376941312865	1.959767882562119	-0.40240748173407365	-0.28683460811668005	1.874719766144225	-0.39703738663257315	-0.2227499208412104	2.0565388186684226	-0.6224670713619661	-1.4117584965585113	1.8720117411797816	0.620501198910058	-0.20052335901034307	1.9006459512841185	-0.6763879565490255
28	0.9333333333333333	-0.2563435581698841	1.8748790573427174	-0.5284548966081278	-0.2743472912913289	1.8704647311098181	-0.4644737727059535	-0.2794803567208754	1.7177601888988132	-0.44175708313420126													-0.2375267000191559	1.8796325241268115	-0.6043045128906948	-0.23077381773097033	1.7277620236285998	-0.587949367732235	-0.22117275432398098	1.580689805265446	-0.5661362095788149	-0.22640327534839585	1.5473881546759756	-0.6399103232767449	-0.21206867514173144	1.5593995489600927	-0.6511271464978643	-0.22318600345495226	1.5688629909953167	-0.5325768052093922	-0.24620747489561048	2.054106714019747	-0.5286513927283248	-0.25550686567506975	2.1323306302853795	-0.5859711242759271	-0.27110220307714633	2.0530221896347705	-0.43263343297999224	-0.27674050496133396	1.9599321209663738	-0.40198083647290755	-0.291502639114322	1.8719403363094074	-0.39562774557626096	-0.22205218748602726	2.0560734520523836	-0.620044105798259	-1.4117584965585113	1.8720117411797816	0.620501198910058	-0.20052335901034307	1.9006459512841185	-0.6763879565490255
29	0.9666666666666667	-0.2530260183087175	1.8776913026688131	-0.5276957680886709	-0.2720279675540578	1.8740391264850234	-0.46690023517393564	-0.2786688083326252	1.7217611281601028	-0.43664041360455397													-0.23361609191716756	1.8826299158210353	-0.5918361309433949	-0.23210846888396475	1.7297461729129517	-0.5953099115588887	-0.2208607286404166	1.5818544141456499	-0.5667881343126584	-0.22484081575626294	1.5499924421703346	-0.6377990157814493	-0.2135226027126615	1.5615269890316377	-0.6500960378383459	-0.22413877868321413	1.571043806310273	-0.5364924028794329	-0.24608362635821499	2.055238472769507	-0.5284745041265541	-0.2554875514733793	2.1335092561164277	-0.586416476906606	-0.2709895800349893	2.054216334217795	-0.432517354527683	-0.28050132300058844	1.961960914359077	-0.398230847697302	-0.29594654276466004	1.8857764356393516	-0.3876759514659035	-0.22192626266907778	2.05593133897566	-0.6192851563857713	-1.4117584965585113	1.8720117411797816	0.620501198910058	-0.20052335901034307	1.9006459512841185	-0.6763879565490255
30	1.0	-0.2549868952884874	1.8806207162706559	-0.525943557572728	-0.2722468187255013	1.8755046033749723	-0.46710450026225336	-0.277857259944375	1.7257620674213925	-0.4315237440749067													-0.23441555378261045	1.8870962406158827	-0.5954069162914587	-0.22897400386043926	1.7308802119933604	-0.6028960556664291	-0.22038105612156814	1.5850944057438598	-0.5680268457514376	-0.22457589337313597	1.5487716005343422	-0.6381377753948673	-0.213515402869438	1.561895583103737	-0.6501375054146978	-0.22317526794291342	1.5746124858844848	-0.5401021956905332	-0.24703500448438023	2.0560623754196836	-0.5232398528587038	-0.2553691970520176	2.134709283591766	-0.5860683878946062	-0.2728465967759481	2.056578108473893	-0.4307734938000786	-0.2843868715830414	1.965416563377251	-0.3949203127097332	-0.29949987331597566	1.885580657804727	-0.39776830800850127	-0.22317490844889548	2.05681788205439	-0.6145277998168305	-1.4095093717581328	1.8733058453484588	0.6178576160566941	-0.19882782910723162	1.9068970563921612	-0.6831838681653852
31	1.0333333333333334	-0.25406889169853814	1.8902749673916603	-0.5242917472450647	-0.2710163688626007	1.8897592440939794	-0.4660756604166222	-0.27704571155612484	1.7297630066826821	-0.42640707454525945													-0.23447834431114623	1.8938615917105381	-0.5879991687463099	-0.23296242338287843	1.740471272549862	-0.5998243217754969	-0.21848194301295132	1.5889380314426338	-0.5703149796256889	-0.22362358607289104	1.55023329535114	-0.6435918701816112	-0.2124384712758202	1.562681219252678	-0.6556892377142066	-0.22221175720261274	1.5781811654586964	-0.5437119885016334	-0.2468650492498493	2.0599187172268034	-0.5233401650494898	-0.2524097911922655	2.1368592812864375	-0.5775480470121338	-0.27000683632987993	2.064357481121803	-0.43250981839819624	-0.2869419931811899	1.9743461564459228	-0.39699016258616754	-0.30809801661439135	1.8982269799159521	-0.41137679292442425	-0.2240665494180815	2.059405831788167	-0.6089338460980526	-0.21443567652716747	1.9817554475786834	-0.6340612648061356	-1.2863748123879384	1.8371733394395848	0.3938018739217195
32	1.0666666666666667	-0.2538553968336685	1.8916874369451508	-0.5152644701087158	-0.2695420792016761	1.8886045906343223	-0.445080206047363	-0.27623416316787464	1.7337639459439718	-0.42129040501561216													-0.2366873831949199	1.8941980772714815	-0.5773102592158972	-0.23345636867404862	1.74495154752905	-0.5952202213403625	-0.2170748521830612	1.5881656822105634	-0.5758177948227485	-0.2214731050165682	1.5472469905969375	-0.6451926094671367	-0.21162141126583853	1.55924248283416	-0.6600381775057764	-0.22054755386482236	1.5771230294973624	-0.5575436493076906	-0.24791508177534466	2.062468667806173	-0.5190004162612534	-0.25139733597914615	2.1376663549724166	-0.5662884067680753	-0.2707681370226418	2.066814689230899	-0.42777216521805245	-0.29063323098310057	1.9824128282537326	-0.3943281715751623	-0.3193284756398766	1.9218600077892254	-0.4166371332788357	-0.2223579963846172	2.0617133823852	-0.5947718022193235	-0.21158521583063214	1.9884487054311983	-0.6163446943867104	-1.3058912387637243	1.858914193051874	0.40695228636681
33	1.1	-0.25117274560326774	1.891408807205904	-0.4972903884277356	-0.2696903666081688	1.8876973056432365	-0.4365635495413445	-0.27542261477962443	1.7377648852052614	-0.41617373548596487													-0.23513716303438048	1.8952595940160493	-0.562063025091945	-0.2259057853944593	1.7438518858314938	-0.5775173420823374	-0.21484849626259822	1.593405294082755	-0.5788169744277654	-0.22677784019787164	1.555554295843613	-0.6451663868647711	-0.21432369379467076	1.5652125653285582	-0.6624597849433934	-0.21703651251782766	1.5831917546847039	-0.5580037828290291	-0.24693711741762192	2.06586649886374	-0.5085471957112736	-0.25039165230755556	2.138425432139852	-0.5630588111690621	-0.2726044941732236	2.0668164289017894	-0.4254730359180479	-0.2951930259651778	1.9848915766450106	-0.39195172063720174	-0.32517497678800533	1.9326671424126491	-0.41094352728233063	-0.21970283663026452	2.0624994993339976	-0.5859080272689184	-0.21164278505196876	1.9925490228852092	-0.6172388610396742	-0.7581507732688881	1.9399817048147372	-0.15492933262340003
34	1.1333333333333333	-0.25116534546868113	1.8910250839782297	-0.4970411429182675	-0.2697726160717858	1.8888033429650155	-0.4367742387268466	-0.27426261800813073	1.735601182295878	-0.4125649800824509													-0.23434039394764167	1.8946228710794202	-0.5502638304493378	-0.22369705592384598	1.7428350461984836	-0.5580574194443572	-0.21291449503837515	1.6027440216348843	-0.5730614064984455	-0.2212886884982466	1.5669180351912395	-0.6259893214579653	-0.20945559669557928	1.5767812960168686	-0.6425031640715348	-0.21105192131471398	1.5901193367325328	-0.5476938320105176	-0.24595709452006173	2.0665734713441957	-0.497546063151803	-0.24744459244560016	2.137321220439734	-0.5623008711803031	-0.27056294410462495	2.066389983909655	-0.41922602909660117	-0.29690254082233614	1.986360013622934	-0.38981284865386895	-0.30763799382122103	1.9998354058546899	-0.4047639876320299	-0.22080555777071517	2.0619688254506863	-0.5805969919060667	-0.20807082281880082	1.9820221382061634	-0.62122193201954	-0.21041030777405192	2.0210492165776004	-0.7168109516136102
35	1.1666666666666667	-0.24814927027873	1.8924884955225736	-0.49620987777229747	-0.2628535984494614	1.8892415264046387	-0.4399253222029233	-0.27056794094083364	1.7374066276588298	-0.41701739140229666													-0.2314023329946021	1.8963468618825698	-0.5496716526412653	-0.2199996554053866	1.751525020079658	-0.5498214967163128	-0.21262530510264555	1.6158700455744854	-0.5212310262017371	-0.2092862269469104	1.5786873308536395	-0.5763894776877858	-0.2133821727239517	1.6022666194298227	-0.6044362580934809	-0.21535093115590986	1.6106988566824665	-0.48938644726146074	-0.24114364537666866	2.0578799637881544	-0.4974031457350915	-0.2427698476726694	2.1324919931429043	-0.5643164812252351	-0.25986665018610755	2.0637818332872335	-0.4184715214068369	-0.2948645640262405	2.0044303885585473	-0.38892935911130094	-0.2901010108544368	2.0670036692967306	-0.39858444798172915	-0.21542939222357563	2.0555430952502567	-0.5701045903126178	-0.19565188020987667	1.9914208049733146	-0.6387409541415296	-0.20789610056175784	2.0414709376109035	-0.7077202851393654
